{
  "accessors": [
    {
      "bufferView": 2,
      "componentType": 5126,
      "count": 44,
      "max": [
        1.6007078886032104,
        3.254826784133911,
        1.496541976928711
      ],
      "min": [
        -1.6007078886032104,
        3.108546733856201,
        -1.496541976928711
      ],
      "type": "VEC3"
    },
    {
      "bufferView": 2,
      "byteOffset": 528,
      "componentType": 5126,
      "count": 44,
      "max": [
        0.9998841285705566,
        0.9995073676109314,
        0.9998989105224609
      ],
      "min": [
        -0.9998841285705566,
        -1.0,
        -0.9998989105224609
      ],
      "type": "VEC3"
    },
    {
      "bufferView": 3,
      "componentType": 5126,
      "count": 44,
      "max": [
        0.9998988509178162,
        0.6743072867393494,
        0.9999557733535767,
        1.0
      ],
      "min": [
        -1.0,
        -0.6337983012199402,
        -0.9998841285705566,
        1.0
      ],
      "type": "VEC4"
    },
    {
      "bufferView": 1,
      "componentType": 5126,
      "count": 44,
      "max": [
        0.9749578237533569,
        0.9875906109809875
      ],
      "min": [
        0.006420165300369263,
        0.03200184553861618
      ],
      "type": "VEC2"
    },
    {
      "bufferView": 0,
      "componentType": 5125,
      "count": 132,
      "type": "SCALAR"
    },
    {
      "bufferView": 2,
      "byteOffset": 1056,
      "componentType": 5126,
      "count": 62,
      "max": [
        1.1712610721588135,
        8.237083435058594,
        -1.9719343185424805
      ],
      "min": [
        -1.1712610721588135,
        7.179580211639404,
        -2.2504565715789795
      ],
      "type": "VEC3"
    },
    {
      "bufferView": 2,
      "byteOffset": 1800,
      "componentType": 5126,
      "count": 62,
      "max": [
        0.48714131116867065,
        0.9946387410163879,
        0.9963717460632324
      ],
      "min": [
        -0.48657625913619995,
        -0.9451395869255066,
        -0.9997963905334473
      ],
      "type": "VEC3"
    },
    {
      "bufferView": 3,
      "byteOffset": 704,
      "componentType": 5126,
      "count": 62,
      "max": [
        0.9999997615814209,
        0.48577621579170227,
        0.27679669857025146,
        1.0
      ],
      "min": [
        0.8600748181343079,
        -0.48242542147636414,
        -0.3170596957206726,
        1.0
      ],
      "type": "VEC4"
    },
    {
      "bufferView": 1,
      "byteOffset": 352,
      "componentType": 5126,
      "count": 62,
      "max": [
        0.9957225918769836,
        0.33210936188697815
      ],
      "min": [
        0.7767460942268372,
        0.14591503143310547
      ],
      "type": "VEC2"
    },
    {
      "bufferView": 0,
      "byteOffset": 528,
      "componentType": 5125,
      "count": 180,
      "type": "SCALAR"
    },
    {
      "bufferView": 2,
      "byteOffset": 2544,
      "componentType": 5126,
      "count": 74,
      "max": [
        1.1881468296051025,
        7.271796703338623,
        -1.5107035636901855
      ],
      "min": [
        -1.197507381439209,
        3.0425455570220947,
        -2.1382243633270264
      ],
      "type": "VEC3"
    },
    {
      "bufferView": 2,
      "byteOffset": 3432,
      "componentType": 5126,
      "count": 74,
      "max": [
        0.9999875426292419,
        0.9994298815727234,
        0.9993447065353394
      ],
      "min": [
        -0.9998719692230225,
        -0.9994298219680786,
        -0.9991933107376099
      ],
      "type": "VEC3"
    },
    {
      "bufferView": 3,
      "byteOffset": 1696,
      "componentType": 5126,
      "count": 74,
      "max": [
        0.9984210133552551,
        0.9993427395820618,
        0.9994298219680786,
        1.0
      ],
      "min": [
        -0.9998635649681091,
        -0.9991933703422546,
        -0.9624766111373901,
        1.0
      ],
      "type": "VEC4"
    },
    {
      "bufferView": 1,
      "byteOffset": 848,
      "componentType": 5126,
      "count": 74,
      "max": [
        0.9920179843902588,
        0.43565666675567627
      ],
      "min": [
        0.0033458173274993896,
        0.003089425154030323
      ],
      "type": "VEC2"
    },
    {
      "bufferView": 0,
      "byteOffset": 1248,
      "componentType": 5125,
      "count": 132,
      "type": "SCALAR"
    },
    {
      "bufferView": 2,
      "byteOffset": 4320,
      "componentType": 5126,
      "count": 204,
      "max": [
        1.5794286727905273,
        8.309398651123047,
        -1.4513190984725952
      ],
      "min": [
        -1.5794286727905273,
        -0.4118361473083496,
        -2.314723014831543
      ],
      "type": "VEC3"
    },
    {
      "bufferView": 2,
      "byteOffset": 6768,
      "componentType": 5126,
      "count": 204,
      "max": [
        1.0,
        0.98691725730896,
        0.9999390840530396
      ],
      "min": [
        -1.0,
        -1.0,
        -0.9999926686286926
      ],
      "type": "VEC3"
    },
    {
      "bufferView": 3,
      "byteOffset": 2880,
      "componentType": 5126,
      "count": 204,
      "max": [
        0.1985064595937729,
        0.999969482421875,
        1.0,
        1.0
      ],
      "min": [
        -0.9958629608154297,
        -0.9973108172416687,
        -1.0,
        1.0
      ],
      "type": "VEC4"
    },
    {
      "bufferView": 1,
      "byteOffset": 1440,
      "componentType": 5126,
      "count": 204,
      "max": [
        0.9916576147079468,
        0.9573574662208557
      ],
      "min": [
        0.006725907325744629,
        0.3972431421279907
      ],
      "type": "VEC2"
    },
    {
      "bufferView": 0,
      "byteOffset": 1776,
      "componentType": 5125,
      "count": 504,
      "type": "SCALAR"
    },
    {
      "bufferView": 2,
      "byteOffset": 9216,
      "componentType": 5126,
      "count": 196,
      "max": [
        1.581334114074707,
        3.135654926300049,
        1.4957226514816284
      ],
      "min": [
        -1.581334114074707,
        -0.4118361473083496,
        1.1807372570037842
      ],
      "type": "VEC3"
    },
    {
      "bufferView": 2,
      "byteOffset": 11568,
      "componentType": 5126,
      "count": 196,
      "max": [
        1.0,
        0.5673021674156189,
        1.0
      ],
      "min": [
        -1.0,
        -1.0,
        -1.0
      ],
      "type": "VEC3"
    },
    {
      "bufferView": 3,
      "byteOffset": 6144,
      "componentType": 5126,
      "count": 196,
      "max": [
        0.39819493889808655,
        0.999922513961792,
        0.9997100830078125,
        1.0
      ],
      "min": [
        -0.447154700756073,
        -0.9999686479568481,
        -0.9993278384208679,
        1.0
      ],
      "type": "VEC4"
    },
    {
      "bufferView": 1,
      "byteOffset": 3072,
      "componentType": 5126,
      "count": 196,
      "max": [
        0.7662548422813416,
        0.281344473361969
      ],
      "min": [
        0.40719911456108093,
        0.042814821004867554
      ],
      "type": "VEC2"
    },
    {
      "bufferView": 0,
      "byteOffset": 3792,
      "componentType": 5125,
      "count": 324,
      "type": "SCALAR"
    },
    {
      "bufferView": 2,
      "byteOffset": 13920,
      "componentType": 5126,
      "count": 82,
      "max": [
        1.5075337886810303,
        3.154963731765747,
        1.4185518026351929
      ],
      "min": [
        -1.5075337886810303,
        2.5685110092163086,
        -1.5346565246582031
      ],
      "type": "VEC3"
    },
    {
      "bufferView": 2,
      "byteOffset": 14904,
      "componentType": 5126,
      "count": 82,
      "max": [
        1.0,
        1.0,
        1.0
      ],
      "min": [
        -1.0,
        -1.0,
        -1.0
      ],
      "type": "VEC3"
    },
    {
      "bufferView": 3,
      "byteOffset": 9280,
      "componentType": 5126,
      "count": 82,
      "max": [
        1.0,
        0.18365512788295746,
        1.0,
        1.0
      ],
      "min": [
        -3.155693775624968e-05,
        -0.18365515768527985,
        -1.0,
        1.0
      ],
      "type": "VEC4"
    },
    {
      "bufferView": 1,
      "byteOffset": 4640,
      "componentType": 5126,
      "count": 82,
      "max": [
        0.9790267944335938,
        0.7157431244850159
      ],
      "min": [
        0.3006709814071655,
        0.04583480954170227
      ],
      "type": "VEC2"
    },
    {
      "bufferView": 0,
      "byteOffset": 5088,
      "componentType": 5125,
      "count": 168,
      "type": "SCALAR"
    },
    {
      "bufferView": 2,
      "byteOffset": 15888,
      "componentType": 5126,
      "count": 144,
      "max": [
        1.5617438554763794,
        1.0520641803741455,
        1.4624743461608887
      ],
      "min": [
        -1.5617438554763794,
        0.03396463394165039,
        -1.7190426588058472
      ],
      "type": "VEC3"
    },
    {
      "bufferView": 2,
      "byteOffset": 17616,
      "componentType": 5126,
      "count": 144,
      "max": [
        1.0,
        1.0,
        1.0
      ],
      "min": [
        -1.0,
        -1.0,
        -1.0
      ],
      "type": "VEC3"
    },
    {
      "bufferView": 3,
      "byteOffset": 10592,
      "componentType": 5126,
      "count": 144,
      "max": [
        0.9999701976776123,
        0.2036697268486023,
        1.0,
        1.0
      ],
      "min": [
        -1.0,
        -0.22661657631397247,
        -1.0,
        1.0
      ],
      "type": "VEC4"
    },
    {
      "bufferView": 1,
      "byteOffset": 5296,
      "componentType": 5126,
      "count": 144,
      "max": [
        0.6441625952720642,
        0.7155146598815918
      ],
      "min": [
        0.3002525568008423,
        0.2854454815387726
      ],
      "type": "VEC2"
    },
    {
      "bufferView": 0,
      "byteOffset": 5760,
      "componentType": 5125,
      "count": 312,
      "type": "SCALAR"
    }
  ],
  "asset": {
    "extras": {
      "author": "Erika Dejnes [YuYuna Art] (https://sketchfab.com/E.Dejnes)",
      "license": "CC-BY-NC-4.0 (http://creativecommons.org/licenses/by-nc/4.0/)",
      "source": "https://sketchfab.com/3d-models/antique-chair-5dfe7d704a1d4ad6be5f4a77fbb488d3",
      "title": "Antique Chair"
    },
    "generator": "Sketchfab-16.17.0",
    "version": "2.0"
  },
  "bufferViews": [
    {
      "buffer": 0,
      "byteLength": 7008,
      "name": "floatBufferViews",
      "target": 34963
    },
    {
      "buffer": 0,
      "byteLength": 6448,
      "byteOffset": 7008,
      "byteStride": 8,
      "name": "floatBufferViews",
      "target": 34962
    },
    {
      "buffer": 0,
      "byteLength": 19344,
      "byteOffset": 13456,
      "byteStride": 12,
      "name": "floatBufferViews",
      "target": 34962
    },
    {
      "buffer": 0,
      "byteLength": 12896,
      "byteOffset": 32800,
      "byteStride": 16,
      "name": "floatBufferViews",
      "target": 34962
    }
  ],
  "buffers": [
    {
      "byteLength": 45696,
      "uri": "scene.bin"
    }
  ],
  "images": [
    {
      "uri": "textures/Chair_and_Rack_baseColor.png"
    },
    {
      "uri": "textures/Chair_and_Rack_metallicRoughness.png"
    },
    {
      "uri": "textures/Chair_and_Rack_normal.png"
    }
  ],
  "materials": [
    {
      "doubleSided": true,
      "name": "Chair_and_Rack",
      "normalTexture": {
        "index": 2
      },
      "pbrMetallicRoughness": {
        "baseColorTexture": {
          "index": 0
        },
        "metallicRoughnessTexture": {
          "index": 1
        }
      }
    }
  ],
  "meshes": [
    {
      "name": "Seat_Chair_and_Rack_0",
      "primitives": [
        {
          "attributes": {
            "NORMAL": 1,
            "POSITION": 0,
            "TANGENT": 2,
            "TEXCOORD_0": 3
          },
          "indices": 4,
          "material": 0,
          "mode": 4
        }
      ]
    },
    {
      "name": "Rest_upper_Part_Chair_and_Rack_0",
      "primitives": [
        {
          "attributes": {
            "NORMAL": 6,
            "POSITION": 5,
            "TANGENT": 7,
            "TEXCOORD_0": 8
          },
          "indices": 9,
          "material": 0,
          "mode": 4
        }
      ]
    },
    {
      "name": "Rest_Lower_Part_Chair_and_Rack_0",
      "primitives": [
        {
          "attributes": {
            "NORMAL": 11,
            "POSITION": 10,
            "TANGENT": 12,
            "TEXCOORD_0": 13
          },
          "indices": 14,
          "material": 0,
          "mode": 4
        }
      ]
    },
    {
      "name": "Legs_Backside_Chair_and_Rack_0",
      "primitives": [
        {
          "attributes": {
            "NORMAL": 16,
            "POSITION": 15,
            "TANGENT": 17,
            "TEXCOORD_0": 18
          },
          "indices": 19,
          "material": 0,
          "mode": 4
        }
      ]
    },
    {
      "name": "Legs_front_Chair_and_Rack_0",
      "primitives": [
        {
          "attributes": {
            "NORMAL": 21,
            "POSITION": 20,
            "TANGENT": 22,
            "TEXCOORD_0": 23
          },
          "indices": 24,
          "material": 0,
          "mode": 4
        }
      ]
    },
    {
      "name": "Seat_Bars_Chair_and_Rack_0",
      "primitives": [
        {
          "attributes": {
            "NORMAL": 26,
            "POSITION": 25,
            "TANGENT": 27,
            "TEXCOORD_0": 28
          },
          "indices": 29,
          "material": 0,
          "mode": 4
        }
      ]
    },
    {
      "name": "stability_Bars_Chair_and_Rack_0",
      "primitives": [
        {
          "attributes": {
            "NORMAL": 31,
            "POSITION": 30,
            "TANGENT": 32,
            "TEXCOORD_0": 33
          },
          "indices": 34,
          "material": 0,
          "mode": 4
        }
      ]
    }
  ],
  "nodes": [
    {
      "children": [
        1
      ],
      "matrix": [
        1.0,
        0.0,
        0.0,
        0.0,
        0.0,
        2.220446049250313e-16,
        -1.0,
        0.0,
        0.0,
        1.0,
        2.220446049250313e-16,
        0.0,
        0.0,
        0.0,
        0.0,
        1.0
      ],
      "name": "Sketchfab_model"
    },
    {
      "children": [
        2
      ],
      "matrix": [
        1.0,
        0.0,
        0.0,
        0.0,
        0.0,
        0.0,
        1.0,
        0.0,
        0.0,
        -1.0,
        0.0,
        0.0,
        0.0,
        0.0,
        0.0,
        1.0
      ],
      "name": "antique_Chair.fbx"
    },
    {
      "children": [
        3
      ],
      "name": "RootNode"
    },
    {
      "children": [
        4
      ],
      "name": "Antique_Set"
    },
    {
      "children": [
        5,
        7,
        9,
        11,
        13,
        15,
        17
      ],
      "matrix": [
        -1.8581924853752199,
        2.2756294794144277e-16,
        0.13026893619579047,
        0.0,
        2.44074812197658e-16,
        1.86275315284729,
        2.2756294794144277e-16,
        0.0,
        -0.13026893619579047,
        2.44074812197658e-16,
        -1.8581924853752199,
        0.0,
        -0.23462602496147156,
        0.5657329559326172,
        10.5311918258667,
        1.0
      ],
      "name": "Antique_Chair"
    },
    {
      "children": [
        6
      ],
      "matrix": [
        1.0,
        2.842061780743806e-32,
        0.0,
        0.0,
        -2.842061780743806e-32,
        1.0,
        1.966706962048966e-33,
        0.0,
        5.589502690762126e-65,
        -1.966706962048966e-33,
        1.0,
        0.0,
        0.0,
        0.0,
        0.0,
        1.0
      ],
      "name": "Seat"
    },
    {
      "mesh": 0,
      "name": "Seat_Chair_and_Rack_0"
    },
    {
      "children": [
        8
      ],
      "matrix": [
        1.0,
        2.842061780743806e-32,
        0.0,
        0.0,
        -2.842061780743806e-32,
        1.0,
        1.966706962048966e-33,
        0.0,
        5.589502690762126e-65,
        -1.966706962048966e-33,
        1.0,
        0.0,
        0.0,
        0.0,
        0.0,
        1.0
      ],
      "name": "Rest_upper_Part"
    },
    {
      "mesh": 1,
      "name": "Rest_upper_Part_Chair_and_Rack_0"
    },
    {
      "children": [
        10
      ],
      "matrix": [
        1.0,
        2.842061780743806e-32,
        0.0,
        0.0,
        -2.842061780743806e-32,
        1.0,
        1.966706962048966e-33,
        0.0,
        5.589502690762126e-65,
        -1.966706962048966e-33,
        1.0,
        0.0,
        0.0,
        0.0,
        0.0,
        1.0
      ],
      "name": "Rest_Lower_Part"
    },
    {
      "mesh": 2,
      "name": "Rest_Lower_Part_Chair_and_Rack_0"
    },
    {
      "children": [
        12
      ],
      "matrix": [
        1.0,
        2.842061780743806e-32,
        0.0,
        0.0,
        -2.842061780743806e-32,
        1.0,
        1.966706962048966e-33,
        0.0,
        5.589502690762126e-65,
        -1.966706962048966e-33,
        1.0,
        0.0,
        0.0,
        0.0,
        0.0,
        1.0
      ],
      "name": "Legs_Backside"
    },
    {
      "mesh": 3,
      "name": "Legs_Backside_Chair_and_Rack_0"
    },
    {
      "children": [
        14
      ],
      "matrix": [
        1.0,
        2.842061780743806e-32,
        0.0,
        0.0,
        -2.842061780743806e-32,
        1.0,
        1.966706962048966e-33,
        0.0,
        5.589502690762126e-65,
        -1.966706962048966e-33,
        1.0,
        0.0,
        0.0,
        0.0,
        0.0,
        1.0
      ],
      "name": "Legs_front"
    },
    {
      "mesh": 4,
      "name": "Legs_front_Chair_and_Rack_0"
    },
    {
      "children": [
        16
      ],
      "matrix": [
        1.0,
        2.842061780743806e-32,
        0.0,
        0.0,
        -2.842061780743806e-32,
        1.0,
        1.966706962048966e-33,
        0.0,
        5.589502690762126e-65,
        -1.966706962048966e-33,
        1.0,
        0.0,
        0.0,
        0.0,
        0.0,
        1.0
      ],
      "name": "Seat_Bars"
    },
    {
      "mesh": 5,
      "name": "Seat_Bars_Chair_and_Rack_0"
    },
    {
      "children": [
        18
      ],
      "matrix": [
        1.0,
        2.842061780743806e-32,
        0.0,
        0.0,
        -2.842061780743806e-32,
        1.0,
        1.966706962048966e-33,
        0.0,
        5.589502690762126e-65,
        -1.966706962048966e-33,
        1.0,
        0.0,
        0.0,
        0.0,
        0.0,
        1.0
      ],
      "name": "stability_Bars"
    },
    {
      "mesh": 6,
      "name": "stability_Bars_Chair_and_Rack_0"
    }
  ],
  "samplers": [
    {
      "magFilter": 9729,
      "minFilter": 9987,
      "wrapS": 10497,
      "wrapT": 10497
    }
  ],
  "scene": 0,
  "scenes": [
    {
      "name": "Sketchfab_Scene",
      "nodes": [
        0
      ]
    }
  ],
  "textures": [
    {
      "sampler": 0,
      "source": 0
    },
    {
      "sampler": 0,
      "source": 1
    },
    {
      "sampler": 0,
      "source": 2
    }
  ]
}
